<svg width="378" height="126" viewBox="0 0 378 126" fill="none" xmlns="http://www.w3.org/2000/svg">
<rect x="125.246" y="125.947" width="36.8026" height="36.8026" transform="rotate(-180 125.246 125.947)" fill="white"/>
<rect x="125.246" y="81.6497" width="36.8026" height="36.8026" transform="rotate(-180 125.246 81.6497)" fill="white"/>
<path d="M80.803 81.8026L44.0004 81.8026L44.0004 45L80.803 45L80.803 81.8026Z" fill="#14CC5E"/>
<rect x="125.246" y="36.8026" width="36.8026" height="36.8026" transform="rotate(-180 125.246 36.8026)" fill="white"/>
<rect x="81.0833" y="36.8026" width="36.8026" height="36.8026" transform="rotate(-180 81.0833 36.8026)" fill="white"/>
<rect x="36.8025" y="36.8026" width="36.8026" height="36.8026" transform="rotate(-180 36.8025 36.8026)" fill="white"/>
<rect x="186" y="78.604" width="3" height="3" rx="1.5" fill="white"/>
<rect x="249" y="78.604" width="3" height="3" rx="1.5" fill="white"/>
<path d="M144.88 46.136H174.888V51.02H144.88V46.136ZM156.98 50.404H162.832V74.604H156.98V50.404Z" fill="white"/>
<path d="M187.719 75.132C184.962 75.132 182.527 74.692 180.415 73.812C178.333 72.932 176.705 71.656 175.531 69.984C174.358 68.2827 173.771 66.2 173.771 63.736C173.771 61.272 174.358 59.1893 175.531 57.488C176.705 55.7573 178.333 54.452 180.415 53.572C182.527 52.692 184.962 52.252 187.719 52.252C190.477 52.252 192.882 52.692 194.935 53.572C197.018 54.452 198.646 55.7573 199.819 57.488C200.993 59.1893 201.579 61.272 201.579 63.736C201.579 66.2 200.993 68.2827 199.819 69.984C198.646 71.656 197.018 72.932 194.935 73.812C192.882 74.692 190.477 75.132 187.719 75.132ZM187.719 70.732C189.245 70.732 190.609 70.468 191.811 69.94C193.043 69.3827 194.011 68.5907 194.715 67.564C195.419 66.508 195.771 65.232 195.771 63.736C195.771 62.24 195.419 60.964 194.715 59.908C194.011 58.8227 193.058 58.0013 191.855 57.444C190.653 56.8867 189.274 56.608 187.719 56.608C186.194 56.608 184.815 56.8867 183.583 57.444C182.351 58.0013 181.369 58.808 180.635 59.864C179.931 60.92 179.579 62.2107 179.579 63.736C179.579 65.232 179.931 66.508 180.635 67.564C181.339 68.5907 182.307 69.3827 183.539 69.94C184.771 70.468 186.165 70.732 187.719 70.732Z" fill="white"/>
<path d="M221.736 75.132C219.8 75.132 218.143 74.7947 216.764 74.12C215.415 73.416 214.315 72.5067 213.464 71.392C212.613 70.248 211.983 69.0013 211.572 67.652C211.161 66.3027 210.956 64.9827 210.956 63.692C210.956 62.0787 211.147 60.5827 211.528 59.204C211.939 57.8253 212.569 56.6227 213.42 55.596C214.271 54.54 215.371 53.7187 216.72 53.132C218.099 52.5453 219.771 52.252 221.736 52.252C223.936 52.252 225.916 52.736 227.676 53.704C229.436 54.672 230.829 56.0213 231.856 57.752C232.912 59.4533 233.44 61.4333 233.44 63.692C233.44 66.0093 232.912 68.0333 231.856 69.764C230.8 71.4653 229.392 72.7853 227.632 73.724C225.872 74.6627 223.907 75.132 221.736 75.132ZM219.888 70.688C221.443 70.688 222.792 70.3947 223.936 69.808C225.109 69.2213 226.004 68.4147 226.62 67.388C227.265 66.332 227.588 65.1 227.588 63.692C227.588 61.58 226.913 59.8787 225.564 58.588C224.244 57.2973 222.352 56.652 219.888 56.652C218.333 56.652 216.911 56.9307 215.62 57.488C214.359 58.0453 213.361 58.852 212.628 59.908C211.895 60.9347 211.528 62.196 211.528 63.692C211.528 65.1 211.865 66.332 212.54 67.388C213.215 68.4147 214.183 69.2213 215.444 69.808C216.705 70.3947 218.187 70.688 219.888 70.688ZM205.808 52.736H211.264L211.528 58.544V83.404H205.808V52.736Z" fill="white"/>
<path d="M257.58 67.344H263.124C262.889 68.84 262.258 70.1747 261.232 71.348C260.234 72.5213 258.87 73.4453 257.14 74.12C255.409 74.7947 253.297 75.132 250.804 75.132C248.017 75.132 245.553 74.692 243.412 73.812C241.27 72.9027 239.598 71.5973 238.396 69.896C237.193 68.1947 236.592 66.1413 236.592 63.736C236.592 61.3307 237.178 59.2773 238.352 57.576C239.525 55.8453 241.153 54.5253 243.236 53.616C245.348 52.7067 247.812 52.252 250.628 52.252C253.502 52.252 255.893 52.7067 257.8 53.616C259.706 54.5253 261.114 55.904 262.024 57.752C262.962 59.5707 263.358 61.9027 263.212 64.748H242.356C242.502 65.8627 242.913 66.8747 243.588 67.784C244.292 68.6933 245.23 69.412 246.404 69.94C247.606 70.468 249.029 70.732 250.672 70.732C252.49 70.732 254.001 70.424 255.204 69.808C256.436 69.1627 257.228 68.3413 257.58 67.344ZM250.364 56.608C248.252 56.608 246.536 57.0773 245.216 58.016C243.896 58.9253 243.045 60.0547 242.664 61.404H257.536C257.389 59.9373 256.685 58.7787 255.424 57.928C254.192 57.048 252.505 56.608 250.364 56.608Z" fill="white"/>
<path d="M283.273 68.4V63.516H302.105V68.4H283.273ZM276.189 74.604L289.565 46.136H295.901L309.409 74.604H303.029L291.325 48.952H294.141L282.525 74.604H276.189Z" fill="white"/>
<path d="M313.196 43.936H318.916V74.604H313.196V43.936ZM337.352 52.736L324.328 64.22L324.46 60.7L338.364 74.604H331.104L319.048 62.328L329.564 52.736H337.352Z" fill="white"/>
<path fill-rule="evenodd" clip-rule="evenodd" d="M347.006 52.736H341.286V74.604H347.006V52.736Z" fill="white"/>
<path d="M352.245 52.736H357.965V74.604H352.245V52.736ZM368.129 52.252C369.479 52.252 370.725 52.428 371.869 52.78C373.013 53.132 374.011 53.6747 374.861 54.408C375.712 55.1413 376.372 56.08 376.841 57.224C377.311 58.3387 377.545 59.6733 377.545 61.228V74.604H371.825V62.24C371.825 60.392 371.371 59.0427 370.461 58.192C369.581 57.312 368.129 56.872 366.105 56.872C364.58 56.872 363.201 57.1653 361.969 57.752C360.737 58.3387 359.74 59.0867 358.977 59.996C358.215 60.876 357.775 61.8 357.657 62.768L357.613 60.524C357.76 59.4973 358.097 58.5 358.625 57.532C359.153 56.564 359.857 55.684 360.737 54.892C361.647 54.0707 362.717 53.4253 363.949 52.956C365.181 52.4867 366.575 52.252 368.129 52.252Z" fill="white"/>
<path d="M341.55 48.952L347.534 42H355.102L347.006 48.952H341.55Z" fill="#14CC5E"/>
</svg>
